<?xml version="1.0" standalone="no"?>
<!DOCTYPE svg PUBLIC "-//W3C//DTD SVG 20010904//EN"
 "http://www.w3.org/TR/2001/REC-SVG-20010904/DTD/svg10.dtd">
<svg version="1.0" xmlns="http://www.w3.org/2000/svg"
 width="700.000000pt" height="700.000000pt" viewBox="0 0 700.000000 700.000000"
 preserveAspectRatio="xMidYMid meet">
<metadata>
Created by potrace 1.14, written by Peter Selinger 2001-2017
</metadata>
<g transform="translate(0.000000,700.000000) scale(0.100000,-0.100000)"
fill="#000000" stroke="none">
<path d="M1955 4933 c-16 -2 -61 -11 -100 -19 -38 -9 -77 -17 -85 -19 -44 -10
-125 -41 -202 -80 -387 -194 -578 -581 -475 -960 17 -62 56 -155 74 -176 7 -8
13 -18 13 -22 0 -33 149 -197 241 -264 103 -76 282 -159 382 -177 15 -2 35 -7
45 -10 25 -7 77 -14 157 -21 39 -3 95 -8 125 -11 176 -16 320 -121 322 -233 1
-97 -114 -196 -267 -229 -77 -17 -210 -9 -285 16 -120 41 -170 91 -226 230
-24 59 -93 128 -156 157 -199 90 -430 -41 -451 -255 -13 -132 78 -331 217
-479 147 -154 375 -270 604 -306 83 -13 316 -13 372 -1 14 3 36 8 49 11 363
72 653 316 750 630 86 278 6 578 -213 797 -133 133 -330 239 -516 277 -94 19
-101 20 -184 27 -125 9 -138 10 -181 19 -58 11 -155 59 -194 96 -42 40 -72
106 -65 144 17 96 127 183 269 213 66 14 207 8 270 -12 117 -37 202 -111 225
-195 25 -95 111 -180 213 -212 195 -62 406 90 409 294 2 143 -91 329 -236 473
-145 143 -321 235 -536 279 -78 16 -287 26 -365 18z"/>
<path d="M3615 4928 c-126 -41 -203 -122 -229 -242 -16 -70 -14 -2334 2 -2389
16 -56 56 -120 99 -157 112 -99 289 -104 403 -12 55 45 62 53 96 122 l28 55 1
467 c0 258 3 468 6 468 4 0 89 -163 189 -362 125 -251 193 -375 218 -401 79
-82 207 -114 319 -82 52 15 127 64 160 105 7 8 94 177 194 375 99 198 184 363
187 367 4 4 7 -201 7 -455 1 -525 1 -527 83 -618 169 -188 483 -113 545 129 9
38 12 313 12 1219 l0 1170 -25 54 c-34 73 -92 134 -159 166 -46 22 -70 27
-136 27 -67 0 -89 -4 -136 -27 -31 -15 -72 -44 -92 -65 -26 -27 -132 -229
-383 -730 -190 -381 -348 -692 -349 -690 -2 2 -159 314 -349 694 -376 752
-372 744 -482 795 -54 24 -159 33 -209 17z"/>
</g>
</svg>
