<svg xmlns="http://www.w3.org/2000/svg" xmlns:xlink="http://www.w3.org/1999/xlink" width="500" zoomAndPan="magnify" viewBox="0 0 375 374.999991" height="500" preserveAspectRatio="xMidYMid meet" version="1.0"><path fill="#fb3e93" d="M 205.445312 265.289062 L 205.445312 154.851562 L 144.25 154.851562 L 144.25 185.804688 L 169.574219 185.804688 L 169.574219 265.289062 L 144.25 265.289062 L 144.25 293.074219 L 230.765625 293.074219 L 230.765625 265.289062 Z M 205.445312 265.289062 " fill-opacity="1" fill-rule="evenodd"/><path fill="#fb3e93" d="M 187.421875 75.046875 C 188.304688 75.414062 189.167969 75.820312 190.011719 76.273438 C 190.855469 76.722656 191.675781 77.214844 192.46875 77.746094 C 193.265625 78.277344 194.03125 78.84375 194.769531 79.453125 C 195.511719 80.058594 196.21875 80.699219 196.894531 81.375 C 197.570312 82.050781 198.210938 82.757812 198.816406 83.5 C 199.425781 84.238281 199.992188 85.003906 200.523438 85.800781 C 201.054688 86.59375 201.546875 87.414062 201.996094 88.257812 C 202.449219 89.101562 202.855469 89.964844 203.222656 90.847656 C 203.585938 91.730469 203.910156 92.628906 204.1875 93.542969 C 204.464844 94.460938 204.695312 95.386719 204.882812 96.324219 C 205.070312 97.261719 205.210938 98.207031 205.304688 99.15625 C 205.398438 100.109375 205.445312 101.0625 205.445312 102.019531 C 205.445312 102.972656 205.398438 103.929688 205.304688 104.878906 C 205.210938 105.832031 205.070312 106.777344 204.882812 107.714844 C 204.695312 108.652344 204.464844 109.578125 204.1875 110.492188 C 203.910156 111.40625 203.585938 112.308594 203.222656 113.191406 C 202.855469 114.074219 202.449219 114.9375 201.996094 115.78125 C 201.546875 116.625 201.054688 117.441406 200.523438 118.238281 C 199.992188 119.03125 199.425781 119.800781 198.816406 120.539062 C 198.210938 121.277344 197.570312 121.984375 196.894531 122.660156 C 196.21875 123.335938 195.511719 123.976562 194.769531 124.585938 C 194.03125 125.191406 193.265625 125.761719 192.46875 126.292969 C 191.675781 126.824219 190.855469 127.3125 190.011719 127.765625 C 189.167969 128.214844 188.304688 128.625 187.421875 128.988281 C 186.539062 129.355469 185.640625 129.675781 184.726562 129.953125 C 183.808594 130.230469 182.882812 130.464844 181.945312 130.652344 C 181.007812 130.835938 180.0625 130.976562 179.113281 131.070312 C 178.160156 131.164062 177.207031 131.210938 176.25 131.210938 C 175.292969 131.210938 174.339844 131.164062 173.390625 131.070312 C 172.4375 130.976562 171.492188 130.835938 170.554688 130.652344 C 169.617188 130.464844 168.691406 130.230469 167.777344 129.953125 C 166.863281 129.675781 165.960938 129.355469 165.078125 128.988281 C 164.195312 128.625 163.332031 128.214844 162.488281 127.765625 C 161.644531 127.3125 160.828125 126.824219 160.03125 126.292969 C 159.238281 125.761719 158.46875 125.191406 157.730469 124.585938 C 156.992188 123.980469 156.285156 123.335938 155.609375 122.660156 C 154.933594 121.984375 154.289062 121.277344 153.683594 120.539062 C 153.078125 119.800781 152.507812 119.03125 151.976562 118.238281 C 151.445312 117.441406 150.957031 116.625 150.503906 115.78125 C 150.054688 114.9375 149.644531 114.074219 149.28125 113.191406 C 148.914062 112.308594 148.59375 111.40625 148.316406 110.492188 C 148.039062 109.578125 147.804688 108.652344 147.617188 107.714844 C 147.433594 106.777344 147.292969 105.832031 147.199219 104.878906 C 147.105469 103.929688 147.058594 102.972656 147.058594 102.019531 C 147.058594 101.0625 147.105469 100.109375 147.199219 99.15625 C 147.292969 98.207031 147.433594 97.261719 147.617188 96.324219 C 147.804688 95.386719 148.039062 94.460938 148.316406 93.542969 C 148.59375 92.628906 148.914062 91.730469 149.28125 90.847656 C 149.644531 89.964844 150.054688 89.101562 150.503906 88.257812 C 150.957031 87.414062 151.445312 86.59375 151.976562 85.800781 C 152.507812 85.003906 153.078125 84.238281 153.683594 83.5 C 154.289062 82.757812 154.933594 82.050781 155.609375 81.375 C 156.285156 80.699219 156.992188 80.058594 157.730469 79.453125 C 158.46875 78.84375 159.238281 78.277344 160.03125 77.746094 C 160.828125 77.214844 161.644531 76.722656 162.488281 76.273438 C 163.332031 75.820312 164.195312 75.414062 165.078125 75.046875 C 165.960938 74.679688 166.863281 74.359375 167.777344 74.082031 C 168.691406 73.804688 169.617188 73.574219 170.554688 73.386719 C 171.492188 73.199219 172.4375 73.058594 173.390625 72.964844 C 174.339844 72.871094 175.292969 72.824219 176.25 72.824219 C 177.207031 72.824219 178.160156 72.871094 179.113281 72.964844 C 180.0625 73.058594 181.007812 73.199219 181.945312 73.386719 C 182.882812 73.574219 183.808594 73.804688 184.726562 74.082031 C 185.640625 74.359375 186.539062 74.679688 187.421875 75.046875 Z M 187.421875 75.046875 " fill-opacity="1" fill-rule="nonzero"/><path fill="#ffffff" d="M 205.445312 102.019531 C 205.445312 118.136719 192.378906 131.210938 176.25 131.210938 C 160.132812 131.210938 147.058594 118.144531 147.058594 102.019531 C 147.058594 85.898438 160.125 72.824219 176.25 72.824219 C 192.378906 72.824219 205.445312 85.898438 205.445312 102.019531 Z M 205.445312 154.851562 L 205.445312 265.289062 L 230.765625 265.289062 L 230.765625 293.074219 L 144.25 293.074219 L 144.25 265.289062 L 169.574219 265.289062 L 169.574219 185.804688 L 144.25 185.804688 L 144.25 154.851562 Z M 330.402344 187.492188 C 330.402344 108.566406 266.433594 44.597656 187.507812 44.597656 C 108.585938 44.597656 44.613281 108.566406 44.613281 187.492188 C 44.613281 266.414062 108.585938 330.386719 187.507812 330.386719 C 266.433594 330.386719 330.402344 266.414062 330.402344 187.492188 Z M 330.402344 187.492188 " fill-opacity="1" fill-rule="evenodd"/><path fill="#fb3e93" d="M 330.402344 187.492188 C 330.402344 266.414062 266.433594 330.386719 187.507812 330.386719 C 108.585938 330.386719 44.613281 266.414062 44.613281 187.492188 C 44.613281 108.566406 108.585938 44.597656 187.507812 44.597656 C 266.433594 44.597656 330.402344 108.566406 330.402344 187.492188 Z M 370.90625 187.492188 C 370.90625 86.207031 288.792969 4.09375 187.507812 4.09375 C 86.222656 4.09375 4.109375 86.207031 4.109375 187.492188 C 4.109375 288.777344 86.222656 370.890625 187.507812 370.890625 C 288.792969 370.890625 370.90625 288.777344 370.90625 187.492188 Z M 370.90625 187.492188 " fill-opacity="1" fill-rule="evenodd"/><path fill="#000000" d="M 230.773438 297.167969 L 144.25 297.167969 C 141.992188 297.167969 140.15625 295.335938 140.15625 293.074219 L 140.15625 265.289062 C 140.15625 263.027344 141.992188 261.195312 144.25 261.195312 L 165.480469 261.195312 L 165.480469 189.898438 L 144.25 189.898438 C 141.992188 189.898438 140.15625 188.0625 140.15625 185.804688 L 140.15625 154.851562 C 140.15625 152.59375 141.992188 150.757812 144.25 150.757812 L 205.453125 150.757812 C 207.710938 150.757812 209.546875 152.59375 209.546875 154.851562 L 209.546875 261.195312 L 230.773438 261.195312 C 233.035156 261.195312 234.867188 263.027344 234.867188 265.289062 L 234.867188 293.074219 C 234.867188 295.335938 233.035156 297.167969 230.773438 297.167969 Z M 148.34375 288.980469 L 226.679688 288.980469 L 226.679688 269.382812 L 205.453125 269.382812 C 203.191406 269.382812 201.359375 267.550781 201.359375 265.289062 L 201.359375 158.945312 L 148.34375 158.945312 L 148.34375 181.710938 L 169.574219 181.710938 C 171.832031 181.710938 173.667969 183.542969 173.667969 185.804688 L 173.667969 265.289062 C 173.667969 267.550781 171.832031 269.382812 169.574219 269.382812 L 148.34375 269.382812 Z M 148.34375 288.980469 " fill-opacity="1" fill-rule="nonzero"/><path fill="#000000" d="M 176.25 135.304688 C 157.898438 135.304688 142.964844 120.371094 142.964844 102.019531 C 142.964844 83.664062 157.898438 68.730469 176.25 68.730469 C 194.605469 68.730469 209.539062 83.664062 209.539062 102.019531 C 209.539062 120.371094 194.605469 135.304688 176.25 135.304688 Z M 176.25 76.917969 C 162.410156 76.917969 151.152344 88.175781 151.152344 102.019531 C 151.152344 115.859375 162.410156 127.117188 176.25 127.117188 C 190.09375 127.117188 201.351562 115.859375 201.351562 102.019531 C 201.351562 88.175781 190.09375 76.917969 176.25 76.917969 Z M 176.25 76.917969 " fill-opacity="1" fill-rule="nonzero"/><path fill="#000000" d="M 187.507812 374.984375 C 84.125 374.984375 0.015625 290.875 0.015625 187.492188 C 0.015625 84.109375 84.125 0 187.507812 0 C 290.890625 0 375 84.109375 375 187.492188 C 375 290.875 290.890625 374.984375 187.507812 374.984375 Z M 187.507812 8.1875 C 88.636719 8.1875 8.203125 88.621094 8.203125 187.492188 C 8.203125 286.363281 88.636719 366.796875 187.507812 366.796875 C 286.378906 366.796875 366.8125 286.363281 366.8125 187.492188 C 366.8125 88.621094 286.378906 8.1875 187.507812 8.1875 Z M 187.507812 8.1875 " fill-opacity="1" fill-rule="nonzero"/><path fill="#000000" d="M 187.507812 334.480469 C 106.460938 334.480469 40.519531 268.539062 40.519531 187.492188 C 40.519531 106.445312 106.460938 40.503906 187.507812 40.503906 C 268.554688 40.503906 334.496094 106.445312 334.496094 187.492188 C 334.496094 268.539062 268.554688 334.480469 187.507812 334.480469 Z M 187.507812 48.6875 C 110.972656 48.6875 48.707031 110.957031 48.707031 187.492188 C 48.707031 264.027344 110.972656 326.292969 187.507812 326.292969 C 264.042969 326.292969 326.3125 264.027344 326.3125 187.492188 C 326.3125 110.957031 264.042969 48.6875 187.507812 48.6875 Z M 187.507812 48.6875 " fill-opacity="1" fill-rule="nonzero"/><path fill="#000000" d="M 190.125 34.328125 C 188.25 34.328125 186.5625 33.03125 186.136719 31.121094 L 183.507812 19.351562 C 183.015625 17.140625 184.402344 14.960938 186.613281 14.464844 C 188.820312 13.96875 191.003906 15.359375 191.5 17.570312 L 194.125 29.339844 C 194.621094 31.546875 193.230469 33.730469 191.023438 34.226562 C 190.722656 34.292969 190.425781 34.328125 190.125 34.328125 Z M 190.125 34.328125 " fill-opacity="1" fill-rule="nonzero"/><path fill="#000000" d="M 149.34375 39 C 147.867188 39 146.445312 38.199219 145.710938 36.800781 L 140.125 26.113281 C 139.074219 24.109375 139.851562 21.636719 141.855469 20.589844 C 143.859375 19.539062 146.332031 20.316406 147.382812 22.320312 L 152.96875 33.003906 C 154.015625 35.007812 153.242188 37.484375 151.238281 38.53125 C 150.632812 38.855469 149.984375 39 149.34375 39 Z M 149.34375 39 " fill-opacity="1" fill-rule="nonzero"/><path fill="#000000" d="M 111.152344 54.078125 C 110.042969 54.078125 108.945312 53.636719 108.132812 52.757812 L 99.972656 43.878906 C 98.445312 42.214844 98.546875 39.625 100.21875 38.097656 C 101.882812 36.570312 104.476562 36.671875 106 38.34375 L 114.164062 47.222656 C 115.691406 48.886719 115.585938 51.476562 113.914062 53.003906 C 113.140625 53.722656 112.140625 54.078125 111.152344 54.078125 Z M 111.152344 54.078125 " fill-opacity="1" fill-rule="nonzero"/><path fill="#000000" d="M 78.164062 78.53125 C 77.414062 78.53125 76.65625 78.324219 75.972656 77.890625 L 65.789062 71.425781 C 63.878906 70.214844 63.316406 67.683594 64.527344 65.773438 C 65.738281 63.863281 68.269531 63.300781 70.179688 64.511719 L 80.363281 70.972656 C 82.273438 72.1875 82.835938 74.71875 81.625 76.628906 C 80.84375 77.855469 79.511719 78.53125 78.164062 78.53125 Z M 78.164062 78.53125 " fill-opacity="1" fill-rule="nonzero"/><path fill="#000000" d="M 52.628906 110.683594 C 52.21875 110.683594 51.8125 110.625 51.402344 110.496094 L 39.898438 106.886719 C 37.738281 106.214844 36.535156 103.910156 37.21875 101.753906 C 37.890625 99.597656 40.195312 98.394531 42.351562 99.074219 L 53.859375 102.683594 C 56.015625 103.355469 57.21875 105.660156 56.535156 107.816406 C 55.988281 109.558594 54.371094 110.683594 52.628906 110.683594 Z M 52.628906 110.683594 " fill-opacity="1" fill-rule="nonzero"/><path fill="#000000" d="M 36.289062 148.34375 C 36.230469 148.34375 36.167969 148.34375 36.109375 148.34375 L 24.058594 147.832031 C 21.800781 147.738281 20.042969 145.828125 20.144531 143.570312 C 20.238281 141.308594 22.132812 139.5625 24.410156 139.65625 L 36.460938 140.167969 C 38.71875 140.261719 40.476562 142.171875 40.375 144.429688 C 40.28125 146.621094 38.472656 148.34375 36.289062 148.34375 Z M 36.289062 148.34375 " fill-opacity="1" fill-rule="nonzero"/><path fill="#000000" d="M 18.472656 191.585938 C 16.597656 191.585938 14.90625 190.289062 14.480469 188.378906 C 13.988281 186.167969 15.378906 183.984375 17.585938 183.492188 L 29.355469 180.863281 C 31.5625 180.371094 33.746094 181.761719 34.242188 183.96875 C 34.738281 186.179688 33.347656 188.363281 31.136719 188.855469 L 19.367188 191.484375 C 19.070312 191.550781 18.769531 191.585938 18.472656 191.585938 Z M 18.472656 191.585938 " fill-opacity="1" fill-rule="nonzero"/><path fill="#000000" d="M 24.238281 235.335938 C 22.761719 235.335938 21.339844 234.535156 20.605469 233.136719 C 19.554688 231.132812 20.332031 228.660156 22.335938 227.609375 L 33.023438 222.023438 C 35.027344 220.972656 37.5 221.75 38.550781 223.753906 C 39.597656 225.757812 38.820312 228.230469 36.816406 229.28125 L 26.132812 234.867188 C 25.527344 235.183594 24.878906 235.335938 24.238281 235.335938 Z M 24.238281 235.335938 " fill-opacity="1" fill-rule="nonzero"/><path fill="#000000" d="M 41.125 276.101562 C 40.015625 276.101562 38.914062 275.660156 38.105469 274.78125 C 36.578125 273.117188 36.679688 270.523438 38.351562 269 L 47.230469 260.835938 C 48.894531 259.300781 51.488281 259.414062 53.011719 261.085938 C 54.539062 262.746094 54.4375 265.339844 52.765625 266.867188 L 43.886719 275.027344 C 43.101562 275.746094 42.113281 276.101562 41.125 276.101562 Z M 41.125 276.101562 " fill-opacity="1" fill-rule="nonzero"/><path fill="#000000" d="M 67.980469 311.113281 C 67.230469 311.113281 66.472656 310.90625 65.789062 310.472656 C 63.878906 309.261719 63.316406 306.730469 64.527344 304.820312 L 70.992188 294.636719 C 72.203125 292.726562 74.734375 292.164062 76.644531 293.375 C 78.554688 294.585938 79.121094 297.117188 77.910156 299.027344 L 71.445312 309.210938 C 70.660156 310.4375 69.335938 311.113281 67.980469 311.113281 Z M 67.980469 311.113281 " fill-opacity="1" fill-rule="nonzero"/><path fill="#000000" d="M 102.992188 337.96875 C 102.582031 337.96875 102.171875 337.910156 101.761719 337.78125 C 99.605469 337.109375 98.402344 334.804688 99.085938 332.648438 L 102.691406 321.140625 C 103.367188 318.984375 105.667969 317.789062 107.828125 318.464844 C 109.984375 319.136719 111.1875 321.441406 110.503906 323.597656 L 106.898438 335.101562 C 106.351562 336.851562 104.738281 337.96875 102.992188 337.96875 Z M 102.992188 337.96875 " fill-opacity="1" fill-rule="nonzero"/><path fill="#000000" d="M 143.765625 354.855469 C 143.707031 354.855469 143.644531 354.855469 143.585938 354.855469 C 141.328125 354.761719 139.570312 352.851562 139.671875 350.589844 L 140.183594 338.539062 C 140.277344 336.28125 142.164062 334.53125 144.449219 334.625 C 146.707031 334.71875 148.464844 336.628906 148.363281 338.890625 L 147.851562 350.941406 C 147.757812 353.132812 145.941406 354.855469 143.765625 354.855469 Z M 143.765625 354.855469 " fill-opacity="1" fill-rule="nonzero"/><path fill="#000000" d="M 187.507812 360.621094 C 185.632812 360.621094 183.945312 359.324219 183.515625 357.421875 L 180.890625 345.652344 C 180.394531 343.445312 181.785156 341.261719 183.996094 340.765625 C 186.203125 340.273438 188.386719 341.660156 188.882812 343.871094 L 191.507812 355.640625 C 192.003906 357.847656 190.613281 360.03125 188.402344 360.527344 C 188.097656 360.585938 187.796875 360.621094 187.507812 360.621094 Z M 187.507812 360.621094 " fill-opacity="1" fill-rule="nonzero"/><path fill="#000000" d="M 231.261719 354.855469 C 229.785156 354.855469 228.359375 354.054688 227.625 352.65625 L 222.039062 341.96875 C 220.992188 339.964844 221.769531 337.492188 223.773438 336.441406 C 225.777344 335.394531 228.25 336.167969 229.296875 338.171875 L 234.882812 348.859375 C 235.933594 350.863281 235.15625 353.335938 233.152344 354.386719 C 232.546875 354.710938 231.898438 354.855469 231.261719 354.855469 Z M 231.261719 354.855469 " fill-opacity="1" fill-rule="nonzero"/><path fill="#000000" d="M 272.027344 337.96875 C 270.917969 337.96875 269.816406 337.527344 269.007812 336.648438 L 260.84375 327.769531 C 259.320312 326.105469 259.421875 323.511719 261.09375 321.988281 C 262.753906 320.460938 265.347656 320.5625 266.875 322.234375 L 275.035156 331.113281 C 276.5625 332.773438 276.460938 335.367188 274.789062 336.894531 C 274.003906 337.609375 273.015625 337.96875 272.027344 337.96875 Z M 272.027344 337.96875 " fill-opacity="1" fill-rule="nonzero"/><path fill="#000000" d="M 307.027344 311.113281 C 306.277344 311.113281 305.519531 310.90625 304.835938 310.472656 L 294.652344 304.007812 C 292.742188 302.796875 292.179688 300.265625 293.390625 298.355469 C 294.601562 296.445312 297.132812 295.878906 299.042969 297.089844 L 309.226562 303.554688 C 311.136719 304.765625 311.699219 307.300781 310.488281 309.210938 C 309.707031 310.4375 308.382812 311.113281 307.027344 311.113281 Z M 307.027344 311.113281 " fill-opacity="1" fill-rule="nonzero"/><path fill="#000000" d="M 333.890625 276.101562 C 333.484375 276.101562 333.074219 276.042969 332.664062 275.914062 L 321.160156 272.308594 C 319 271.632812 317.800781 269.332031 318.480469 267.171875 C 319.15625 265.015625 321.449219 263.820312 323.617188 264.496094 L 335.121094 268.101562 C 337.277344 268.777344 338.480469 271.078125 337.796875 273.238281 C 337.253906 274.984375 335.640625 276.101562 333.890625 276.101562 Z M 333.890625 276.101562 " fill-opacity="1" fill-rule="nonzero"/><path fill="#000000" d="M 350.789062 235.335938 C 350.726562 235.335938 350.667969 235.335938 350.609375 235.335938 L 338.558594 234.824219 C 336.296875 234.730469 334.539062 232.820312 334.644531 230.5625 C 334.738281 228.300781 336.671875 226.535156 338.90625 226.644531 L 350.957031 227.15625 C 353.21875 227.25 354.976562 229.160156 354.871094 231.421875 C 354.777344 233.613281 352.960938 235.335938 350.789062 235.335938 Z M 350.789062 235.335938 " fill-opacity="1" fill-rule="nonzero"/><path fill="#000000" d="M 344.765625 194.210938 C 342.890625 194.210938 341.203125 192.914062 340.773438 191.015625 C 340.28125 188.804688 341.671875 186.621094 343.878906 186.125 L 355.648438 183.5 C 357.859375 183.003906 360.039062 184.394531 360.535156 186.605469 C 361.03125 188.8125 359.640625 190.996094 357.429688 191.492188 L 345.660156 194.117188 C 345.363281 194.179688 345.066406 194.210938 344.765625 194.210938 Z M 344.765625 194.210938 " fill-opacity="1" fill-rule="nonzero"/><path fill="#000000" d="M 340.09375 153.421875 C 338.617188 153.421875 337.191406 152.617188 336.460938 151.21875 C 335.410156 149.214844 336.1875 146.742188 338.191406 145.691406 L 348.878906 140.105469 C 350.882812 139.058594 353.355469 139.832031 354.402344 141.839844 C 355.453125 143.84375 354.675781 146.316406 352.671875 147.363281 L 341.984375 152.949219 C 341.378906 153.273438 340.730469 153.421875 340.09375 153.421875 Z M 340.09375 153.421875 " fill-opacity="1" fill-rule="nonzero"/><path fill="#000000" d="M 325.015625 115.230469 C 323.90625 115.230469 322.804688 114.785156 321.996094 113.90625 C 320.46875 112.242188 320.570312 109.652344 322.242188 108.125 L 331.121094 99.964844 C 332.785156 98.4375 335.375 98.539062 336.902344 100.210938 C 338.429688 101.875 338.328125 104.464844 336.65625 105.992188 L 327.777344 114.15625 C 327 114.871094 326.003906 115.230469 325.015625 115.230469 Z M 325.015625 115.230469 " fill-opacity="1" fill-rule="nonzero"/><path fill="#000000" d="M 300.5625 82.242188 C 299.8125 82.242188 299.054688 82.035156 298.371094 81.601562 C 296.460938 80.390625 295.898438 77.855469 297.109375 75.945312 L 303.574219 65.761719 C 304.785156 63.851562 307.316406 63.289062 309.226562 64.5 C 311.136719 65.710938 311.699219 68.246094 310.488281 70.15625 L 304.027344 80.339844 C 303.242188 81.566406 301.917969 82.242188 300.5625 82.242188 Z M 300.5625 82.242188 " fill-opacity="1" fill-rule="nonzero"/><path fill="#000000" d="M 268.417969 56.707031 C 268.007812 56.707031 267.601562 56.648438 267.191406 56.519531 C 265.03125 55.84375 263.832031 53.542969 264.511719 51.382812 L 268.121094 39.878906 C 268.792969 37.722656 271.097656 36.519531 273.253906 37.203125 C 275.414062 37.875 276.613281 40.179688 275.933594 42.335938 L 272.324219 53.839844 C 271.769531 55.589844 270.160156 56.707031 268.417969 56.707031 Z M 268.417969 56.707031 " fill-opacity="1" fill-rule="nonzero"/><path fill="#000000" d="M 230.75 40.367188 C 230.6875 40.367188 230.628906 40.367188 230.570312 40.367188 C 228.308594 40.273438 226.550781 38.363281 226.65625 36.101562 L 227.167969 24.050781 C 227.261719 21.789062 229.1875 20.035156 231.429688 20.136719 C 233.691406 20.230469 235.449219 22.140625 235.34375 24.398438 L 234.832031 36.449219 C 234.75 38.644531 232.929688 40.367188 230.75 40.367188 Z M 230.75 40.367188 " fill-opacity="1" fill-rule="nonzero"/></svg>