<?xml version="1.0" encoding="UTF-8" standalone="no"?>
<svg id="svg4920" xmlns:rdf="http://www.w3.org/1999/02/22-rdf-syntax-ns#" xmlns="http://www.w3.org/2000/svg" height="245.19mm" width="79.022mm" version="1.1" xmlns:cc="http://creativecommons.org/ns#" xmlns:dc="http://purl.org/dc/elements/1.1/" viewBox="0 0 280.00001 868.77628">
<g id="layer1" transform="translate(-188.7 -77.928)">
<g id="g4883" transform="matrix(2 0 0 2 828.7 -758.02)">
<path id="path4867" d="m-262.68 417.97c-5.54 0-10.225 4.4646-10 10v4.3882h-27.321c-11.08 0-20 8.92-20 20v380c0 11.08 8.92 20 20 20h100c11.08 0 20-8.92 20-20v-380c0-11.08-8.92-20-20-20h-27.321v-4.3882c0-5.54-4.46-10-10-10z"/>
<g fill="#9abc21">
<rect id="rect4829" height="60" width="100" y="532.36" x="-300"/>
<rect id="rect4831" height="60" width="100" y="612.36" x="-300"/>
<rect id="rect4833" height="60" width="100" y="692.36" x="-300"/>
<rect id="rect4835" height="60" width="100" y="772.36" x="-300"/>
</g>
</g>
</g>
</svg>
