<?xml version="1.0" encoding="UTF-8" standalone="no"?>
<svg id="svg6103" xmlns:rdf="http://www.w3.org/1999/02/22-rdf-syntax-ns#" xmlns="http://www.w3.org/2000/svg" height="245.19mm" width="79.022mm" version="1.1" xmlns:cc="http://creativecommons.org/ns#" xmlns:dc="http://purl.org/dc/elements/1.1/" viewBox="0 0 280.00001 868.77628">
<g id="layer1" transform="translate(1411.4 422.03)">
<g id="g4896" transform="matrix(2 0 0 2 -1571.4 -1258)">
<path id="path4871" d="m137.32 417.97c-5.54 0-10.225 4.4646-10 10v4.3882h-27.321c-11.08 0-20 8.92-20 20v380c0 11.08 8.92 20 20 20h100c11.08 0 20-8.92 20-20v-380c0-11.08-8.92-20-20-20h-27.321v-4.3882c0-5.54-4.46-10-10-10z"/>
<rect id="rect4853" height="60" width="100" y="692.36" x="100" fill="#f2922a"/>
<rect id="rect4855" height="60" width="100" y="772.36" x="100" fill="#f2922a"/>
</g>
</g>
</svg>
