<svg xmlns="http://www.w3.org/2000/svg" xmlns:xlink="http://www.w3.org/1999/xlink" width="270" zoomAndPan="magnify" viewBox="0 0 202.5 142.499996" height="190" preserveAspectRatio="xMidYMid meet" version="1.0"><defs><clipPath id="62693fd805"><path d="M 3.367188 1.207031 L 201 1.207031 L 201 141.308594 L 3.367188 141.308594 Z M 3.367188 1.207031 " clip-rule="nonzero"/></clipPath></defs><g clip-path="url(#62693fd805)"><path fill="#000000" d="M 26.574219 4.226562 C 22.800781 4.226562 19.617188 6.230469 19.617188 8.601562 L 19.617188 14.488281 C 19.617188 15.324219 18.9375 16 18.105469 16 C 11.832031 16 6.730469 21.109375 6.730469 27.390625 L 6.730469 118.375 L 30.476562 53.582031 C 33.121094 46.367188 36.972656 39.683594 47.191406 39.683594 L 170.054688 39.683594 L 170.054688 27.390625 C 170.054688 21.109375 164.949219 16 158.679688 16 L 89.625 16 C 89.222656 16 88.835938 15.839844 88.550781 15.554688 C 88.269531 15.273438 88.109375 14.890625 88.109375 14.488281 L 88.113281 8.597656 C 88.113281 6.230469 84.921875 4.226562 81.152344 4.226562 Z M 6.734375 127.15625 C 6.871094 133.316406 11.917969 138.285156 18.105469 138.285156 L 158.679688 138.285156 C 164.632812 138.285156 166.734375 135.648438 168 133.070312 C 174.675781 119.527344 181.726562 98.277344 187.949219 79.527344 C 191.09375 70.054688 194.058594 61.101562 196.820312 53.582031 C 197.664062 51.28125 196.785156 49.28125 195.898438 48.011719 C 193.757812 44.941406 189.320312 42.710938 185.351562 42.710938 L 47.195312 42.710938 C 39.265625 42.710938 36.003906 47.273438 33.3125 54.625 Z M 158.679688 141.3125 L 18.105469 141.3125 C 10.179688 141.3125 3.726562 134.863281 3.707031 126.933594 C 3.707031 126.910156 3.707031 126.886719 3.707031 126.863281 L 3.707031 27.390625 C 3.707031 19.949219 9.359375 13.808594 16.59375 13.054688 L 16.59375 8.601562 C 16.59375 4.523438 21.066406 1.199219 26.574219 1.199219 L 81.152344 1.199219 C 86.65625 1.199219 91.132812 4.523438 91.132812 8.601562 L 91.136719 12.972656 L 158.679688 12.972656 C 166.617188 12.972656 173.074219 19.441406 173.074219 27.390625 L 173.078125 39.683594 L 185.351562 39.683594 C 190.3125 39.683594 195.664062 42.398438 198.375 46.277344 C 200.207031 48.910156 200.664062 51.871094 199.652344 54.625 C 196.914062 62.105469 193.949219 71.03125 190.8125 80.488281 C 184.5625 99.324219 177.480469 120.675781 170.714844 134.410156 C 168.394531 139.121094 164.570312 141.3125 158.679688 141.3125 Z M 158.679688 141.3125 " fill-opacity="1" fill-rule="evenodd"/></g><path fill="#fff176" d="M 185.347656 42.710938 L 47.191406 42.710938 C 39.265625 42.710938 36.003906 47.273438 33.308594 54.625 L 6.734375 127.15625 C 6.871094 133.316406 11.917969 138.285156 18.101562 138.285156 L 158.679688 138.285156 C 164.632812 138.285156 166.734375 135.648438 168 133.070312 C 174.675781 119.527344 181.726562 98.277344 187.945312 79.527344 C 191.09375 70.054688 194.058594 61.101562 196.816406 53.582031 C 197.660156 51.28125 196.78125 49.28125 195.898438 48.011719 C 193.757812 44.941406 189.320312 42.710938 185.347656 42.710938 Z M 185.347656 42.710938 " fill-opacity="1" fill-rule="evenodd"/><path fill="#e8db6c" d="M 47.191406 39.683594 L 170.054688 39.683594 L 170.054688 27.390625 C 170.054688 21.109375 164.949219 16 158.679688 16 L 89.625 16 C 89.222656 16 88.835938 15.839844 88.550781 15.554688 C 88.269531 15.273438 88.109375 14.890625 88.109375 14.488281 L 88.113281 8.597656 C 88.113281 6.230469 84.921875 4.226562 81.152344 4.226562 L 26.574219 4.226562 C 22.800781 4.226562 19.617188 6.230469 19.617188 8.601562 L 19.617188 14.488281 C 19.617188 15.324219 18.9375 16 18.105469 16 C 11.832031 16 6.730469 21.109375 6.730469 27.390625 L 6.730469 118.375 L 30.476562 53.582031 C 33.121094 46.367188 36.972656 39.683594 47.191406 39.683594 Z M 47.191406 39.683594 " fill-opacity="1" fill-rule="evenodd"/></svg>